<svg xmlns="http://www.w3.org/2000/svg" width="510" height="140" viewBox="0 0 510 140">
  <g id="グループ_73" data-name="グループ 73" transform="translate(-421.028 -110)">
    <path id="パス_231" data-name="パス 231" d="M157.838,304.562c7.98-3.292,18.566-.2,29.218,3.284s21.372,7.366,26.11,14.933,3.517,18.906,2.461,30.979c-1.111,12.043-2,24.852-8.853,33.063-6.8,8.242-19.494,11.917-31.022,10.521-11.472-1.366-21.718-7.773-30.057-15.552s-14.832-16.822-15.519-26.144c-.772-9.3,4.2-18.766,9.3-28.453C144.592,317.59,149.912,307.884,157.838,304.562Z" transform="translate(373.54 -149.524)" fill="#acdd9a"/>
    <path id="パス_242" data-name="パス 242" d="M146.326,303.981c4.669-1.926,10.861-.118,17.093,1.921s12.5,4.309,15.275,8.736,2.058,11.06,1.44,18.124c-.65,7.046-1.172,14.539-5.179,19.343-3.975,4.822-11.4,6.972-18.148,6.155-6.712-.8-12.706-4.547-17.584-9.1s-8.677-9.841-9.079-15.3c-.452-5.44,2.458-10.979,5.439-16.646C138.577,311.6,141.69,305.924,146.326,303.981Z" transform="translate(750.328 -129.942)" fill="#ffccd9"/>
    <path id="パス_232" data-name="パス 232" d="M969.823,186.273c8.213,15,13.409,27.574,11.23,39.056-2.179,11.4-11.817,21.623-22.042,23.97-10.225,2.263-20.953-3.269-35.116-7.794-14.08-4.526-31.6-8.046-39.391-20.031-7.794-12.069-5.951-32.6,4.777-48.191,10.812-15.589,30.423-26.065,45.844-22.629C950.546,154.007,961.693,171.355,969.823,186.273Z" transform="translate(-110.005 -40)" fill="#ffeeb4"/>
    <path id="パス_243" data-name="パス 243" d="M42.717,17.2c3.894,7.113,6.358,13.073,5.325,18.517-1.033,5.4-5.6,10.252-10.451,11.364-4.848,1.073-9.934-1.55-16.649-3.7-6.676-2.146-14.98-3.815-18.676-9.5C-1.43,28.165-.556,18.43,4.531,11.039,9.657,3.648,18.955-1.319,26.266.31,33.577,1.9,38.862,10.125,42.717,17.2Z" transform="translate(441.775 135.451) rotate(26)" fill="#ffccd9"/>
    <ellipse id="楕円形_117" data-name="楕円形 117" cx="31.499" cy="31.499" rx="31.499" ry="31.499" transform="translate(491.079 121.571)" fill="#fff"/>
    <ellipse id="楕円形_119" data-name="楕円形 119" cx="7.499" cy="7.499" rx="7.499" ry="7.499" transform="translate(594.597 235.003)" fill="#fff"/>
    <ellipse id="楕円形_120" data-name="楕円形 120" cx="13.999" cy="13.999" rx="13.999" ry="13.999" transform="translate(742.182 110)" fill="#fff"/>
    <ellipse id="楕円形_118" data-name="楕円形 118" cx="17.356" cy="17.678" rx="17.356" ry="17.678" transform="translate(817.776 207.146)" fill="#fff"/>
  </g>
</svg>
