<svg xmlns="http://www.w3.org/2000/svg" width="21" height="21" viewBox="0 0 21 21">
  <path id="Icon_open-magnifying-glass" data-name="Icon open-magnifying-glass" d="M9.105-.019a9.105,9.105,0,1,0,0,18.21,9,9,0,0,0,4.318-1.067,2.6,2.6,0,0,0,.338.338l2.6,2.6a2.653,2.653,0,1,0,3.746-3.746l-2.6-2.6a2.6,2.6,0,0,0-.416-.338A8.983,8.983,0,0,0,18.236,9.06,9.115,9.115,0,0,0,9.131-.045Zm0,2.6a6.473,6.473,0,0,1,6.5,6.5,6.523,6.523,0,0,1-1.717,4.474l-.078.078a2.6,2.6,0,0,0-.338.338,6.51,6.51,0,0,1-4.4,1.639,6.5,6.5,0,1,1,0-13.007Z" transform="translate(0 0.045)" fill="#ff8eb1"/>
</svg>
