<svg xmlns="http://www.w3.org/2000/svg" width="510" height="140" viewBox="0 0 510 140">
  <g id="グループ_73" data-name="グループ 73" transform="translate(-421.028 -110)">
    <path id="パス_231" data-name="パス 231" d="M157.838,304.562c7.98-3.292,18.566-.2,29.218,3.284s21.372,7.366,26.11,14.933,3.517,18.906,2.461,30.979c-1.111,12.043-2,24.852-8.853,33.063-6.8,8.242-19.494,11.917-31.022,10.521-11.472-1.366-21.718-7.773-30.057-15.552s-14.832-16.822-15.519-26.144c-.772-9.3,4.2-18.766,9.3-28.453C144.592,317.59,149.912,307.884,157.838,304.562Z" transform="translate(373.54 -149.524)" fill="#acdd9a"/>
    <path id="パス_242" data-name="パス 242" d="M146.326,303.981c4.669-1.926,10.861-.118,17.093,1.921s12.5,4.309,15.275,8.736,2.058,11.06,1.44,18.124c-.65,7.046-1.172,14.539-5.179,19.343-3.975,4.822-11.4,6.972-18.148,6.155-6.712-.8-12.706-4.547-17.584-9.1s-8.677-9.841-9.079-15.3c-.452-5.44,2.458-10.979,5.439-16.646C138.577,311.6,141.69,305.924,146.326,303.981Z" transform="translate(750.328 -129.942)" fill="#ffccd9"/>
    <path id="パス_232" data-name="パス 232" d="M969.823,186.273c8.213,15,13.409,27.574,11.23,39.056-2.179,11.4-11.817,21.623-22.042,23.97-10.225,2.263-20.953-3.269-35.116-7.794-14.08-4.526-31.6-8.046-39.391-20.031-7.794-12.069-5.951-32.6,4.777-48.191,10.812-15.589,30.423-26.065,45.844-22.629C950.546,154.007,961.693,171.355,969.823,186.273Z" transform="translate(-110.005 -40)" fill="#ffeeb4"/>
    <path id="パス_243" data-name="パス 243" d="M42.717,17.2c3.894,7.113,6.358,13.073,5.325,18.517-1.033,5.4-5.6,10.252-10.451,11.364-4.848,1.073-9.934-1.55-16.649-3.7-6.676-2.146-14.98-3.815-18.676-9.5C-1.43,28.165-.556,18.43,4.531,11.039,9.657,3.648,18.955-1.319,26.266.31,33.577,1.9,38.862,10.125,42.717,17.2Z" transform="translate(441.775 135.451) rotate(26)" fill="#ffccd9"/>
    <ellipse id="楕円形_117" data-name="楕円形 117" cx="31.499" cy="31.499" rx="31.499" ry="31.499" transform="translate(491.079 121.571)" fill="#fff"/>
    <ellipse id="楕円形_119" data-name="楕円形 119" cx="7.499" cy="7.499" rx="7.499" ry="7.499" transform="translate(594.597 235.003)" fill="#fff"/>
    <ellipse id="楕円形_120" data-name="楕円形 120" cx="13.999" cy="13.999" rx="13.999" ry="13.999" transform="translate(742.182 110)" fill="#fff"/>
    <ellipse id="楕円形_118" data-name="楕円形 118" cx="17.356" cy="17.678" rx="17.356" ry="17.678" transform="translate(817.776 207.146)" fill="#fff"/>
    <g id="グループ_72" data-name="グループ 72" transform="translate(554.555 179.411)">
      <path id="パス_233" data-name="パス 233" d="M227.07,418.74a9.891,9.891,0,0,1-7.235,2.958,4.094,4.094,0,0,1-2.912-1.183,4.2,4.2,0,0,1-1.183-2.958,4.141,4.141,0,0,1,8.282.046,4.533,4.533,0,0,1-.091.728,9.555,9.555,0,0,0,1.5-1.183,7.883,7.883,0,0,0-11.1-11.194l-1.638-1.593h.046l8.145-8.191H215.74v-2.275h8.373v2.275l-5.278,5.278a8.769,8.769,0,0,1,1.092-.045,10.176,10.176,0,0,1,10.1,10.193A10.053,10.053,0,0,1,227.07,418.74Zm-5.324-1.138a2.146,2.146,0,0,0-.546-1.365,2.028,2.028,0,0,0-1.32-.546,1.874,1.874,0,0,0-1.866,1.866,1.749,1.749,0,0,0,.546,1.32,1.72,1.72,0,0,0,1.274.546A1.846,1.846,0,0,0,221.746,417.6Z" transform="translate(-212.691 -393.895)" fill="#46323c"/>
      <path id="パス_234" data-name="パス 234" d="M356.211,415.08v1.82a6.621,6.621,0,0,1-4.878-2.148v3.458a6.953,6.953,0,0,1-6.953,6.953,6.648,6.648,0,0,1-4.951-2.039,6.913,6.913,0,0,1-2.039-4.915V406.816H333.2V405h6.007v13.215a5.1,5.1,0,0,0,1.529,3.641,4.978,4.978,0,0,0,3.6,1.492,5.158,5.158,0,0,0,5.169-5.133v-8.045h1.82A4.91,4.91,0,0,0,356.211,415.08Zm-7.645-7.681a2.625,2.625,0,0,1-.8-1.857,2.672,2.672,0,0,1,2.658-2.657,2.623,2.623,0,0,1,1.857.8,2.528,2.528,0,0,1,.764,1.857,2.61,2.61,0,0,1-2.621,2.621A2.47,2.47,0,0,1,348.565,407.4Zm1.02-1.019a1.184,1.184,0,0,0,1.674-1.675,1.256,1.256,0,0,0-.837-.364,1.212,1.212,0,0,0-1.2,1.2A1.255,1.255,0,0,0,349.585,406.38Z" transform="translate(-298.93 -400.328)" fill="#46323c"/>
      <path id="パス_235" data-name="パス 235" d="M467.72,409.02H463.5v6.043h-1.82V409.02h-4.186V407.2h4.186v-4.186h1.82V407.2h4.223Zm5.533,8.191a4.731,4.731,0,0,1,1.383,3.385h-1.82a2.886,2.886,0,0,0-.837-2.075,3,3,0,0,0-1.165-.692v7.5h-.91a4.754,4.754,0,0,1-4.769-4.732,4.655,4.655,0,0,1,3.859-4.66V413.5h1.82v2.439A4.944,4.944,0,0,1,473.254,417.211Zm-4.259.619a2.559,2.559,0,0,0-1.165.692,2.777,2.777,0,0,0-.874,2.075,2.929,2.929,0,0,0,2.039,2.767Zm9.174-9.72-1.274,1.311-1.31-1.311,1.31-1.274Z" transform="translate(-387.871 -400.42)" fill="#46323c"/>
      <path id="パス_236" data-name="パス 236" d="M591.922,406.653v1.82h-5.9v12.377a4.4,4.4,0,0,1-4.4,4.4v-1.82a2.594,2.594,0,0,0,2.585-2.585v-1.493a4.615,4.615,0,0,1-7.463-3.64,4.591,4.591,0,0,1,4.587-4.587,4.514,4.514,0,0,1,2.876.983v-3.64H570.771v-1.82H584.2v-3.64h1.82v3.64Zm-7.791,9.065a2.736,2.736,0,0,0-2.8-2.767,2.785,2.785,0,1,0,2.8,2.767Z" transform="translate(-468.935 -400.42)" fill="#46323c"/>
      <path id="パス_237" data-name="パス 237" d="M705.741,415.864h1.82a4.055,4.055,0,0,1-4.041,4.041h-.91V405.743h1.82V417.9A2.262,2.262,0,0,0,705.741,415.864Zm16.2-8.482v1.82h-3.458v5.06a9.19,9.19,0,0,1-9.21,9.174v-1.82a7.365,7.365,0,0,0,7.39-7.354V409.2H711.42v-1.82h5.242v-4.368h1.82v4.368Z" transform="translate(-563.279 -400.42)" fill="#46323c"/>
      <path id="パス_238" data-name="パス 238" d="M822.9,426.477l1.311,1.274-4.732,4.733-.656-.656a11.711,11.711,0,0,1,0-16.528l1.311,1.274a9.866,9.866,0,0,0-2.876,6.99,9.7,9.7,0,0,0,2.257,6.3C820.462,428.953,822.9,426.477,822.9,426.477Zm11.722-2.621a6.881,6.881,0,0,1-2.075,4.951l-1.274-1.274a5.23,5.23,0,0,0,0-7.39l1.274-1.274A6.9,6.9,0,0,1,834.623,423.856Z" transform="translate(-644 -409.213)" fill="#46323c"/>
      <path id="パス_239" data-name="パス 239" d="M944.995,421.9h1.82a6.134,6.134,0,0,1-12.268,0V409.413h1.82V421.9a4.314,4.314,0,0,0,8.628,0Zm.8-10.667v-1.82h1.82v1.82Zm1.82,1.82v1.82H945.8v-1.82Z" transform="translate(-729.255 -405)" fill="#46323c"/>
      <path id="パス_240" data-name="パス 240" d="M1035.341,418.485h1.82a4.032,4.032,0,0,1-4.041,4.041h-.91V404.833h1.82v15.69A2.262,2.262,0,0,0,1035.341,418.485Zm13.36-2.221a4.623,4.623,0,0,1,1.42,3.349h-1.82a2.892,2.892,0,0,0-2.039-2.767v7.5h-.91a4.778,4.778,0,0,1-4.769-4.733,4.831,4.831,0,0,1,3.859-4.66V409.2H1039.2v-1.82h5.243v-4.368h1.82v4.368h3.458v1.82h-3.458v5.752A4.6,4.6,0,0,1,1048.7,416.264Zm-4.259.582a2.9,2.9,0,0,0,0,5.533Zm7.1-11.285v-1.82h1.82v1.82Zm1.82,1.82v1.82h-1.82v-1.82Z" transform="translate(-799.143 -400.42)" fill="#46323c"/>
      <path id="パス_241" data-name="パス 241" d="M1179.993,420.142a6.146,6.146,0,0,1-6.143,6.143,6.084,6.084,0,0,1-4.368-1.775,6.321,6.321,0,0,1-1.82-4.368v-4.46a3.884,3.884,0,0,0-3.868-3.914,3.9,3.9,0,0,0-3.868,3.914v10.6h-2.275v-24.39h2.275v9.01a6.085,6.085,0,0,1,8.236.41,6.278,6.278,0,0,1,1.775,4.368v4.46a4,4,0,0,0,1.138,2.775,3.769,3.769,0,0,0,2.775,1.092,3.865,3.865,0,0,0,3.868-3.867Z" transform="translate(-888.908 -399.62)" fill="#46323c"/>
    </g>
  </g>
</svg>
